<svg id="Layer_1" data-name="Layer 1" xmlns="http://www.w3.org/2000/svg" viewBox="0 0 5165 856"><defs><style>.cls-1{fill:#46be69;}.cls-2{fill:#107433;}</style></defs><title>Artboard 2 copy 13</title><path class="cls-1" d="M352.78,0C620.57,0,797.25,170,797.25,428S620.57,856,352.78,856H0V0ZM170.56,159.59V696.41H350.93c180.37,0,267.8-113.11,267.8-268.41,0-157.12-87.43-268.41-267.8-268.41Z"/><path class="cls-1" d="M1281.88,260.47,1258,418.84c-26.28-11.63-64.22-19-96.63-19-74,0-124.71,45.26-124.71,133.3V856H877.13V263.54h154.68v64.82c37.29-55.66,94.15-80.73,166.88-80.73C1232.94,247.63,1259.88,252.53,1281.88,260.47Z"/><path class="cls-2" d="M1722.78,0c267.79,0,444.48,170,444.48,428s-176.69,428-444.48,428H1370V0ZM1540.57,159.59V696.41h180.37c180.37,0,267.79-113.11,267.79-268.41,0-157.12-87.42-268.41-267.79-268.41Z"/><path class="cls-2" d="M2853.69,544.17c0,178.53-136.31,311.83-321,311.83C2348.68,856,2213,722.7,2213,544.17s135.72-311.82,319.77-311.82C2717.38,232.35,2853.69,365.64,2853.69,544.17Zm-478.13,0c0,96,67.26,163.25,157.17,163.25s157.72-67.24,157.72-163.25-67.86-163.24-157.72-163.24S2375.56,448.19,2375.56,544.17Z"/><path class="cls-2" d="M3468.23,344.24l-115,96c-36.09-38.54-74.58-59.32-126.55-59.32-82.54,0-148.61,64.82-148.61,163.24,0,99.05,65.47,163.25,148,163.25,51.33,0,95.34-23.23,129-59.92l113.71,97.23C3413.21,816.27,3330,856,3231,856c-188.93,0-315.49-132-315.49-311.83,0-179.15,126.56-311.82,315.49-311.82C3330,232.35,3413.81,272.7,3468.23,344.24Z"/><path class="cls-2" d="M3997.78,390.09H3783.21V606.55c0,74,39.13,100.87,88.62,100.87,37.93,0,78.91-18.95,111.32-38.51l58.64,124.73C3989.87,829.09,3929.93,856,3845.54,856c-146.71,0-221.94-83.14-221.94-236.63V390.09H3509.3V248.25h114.3V72.16h159.61V248.25h214.57Z"/><path class="cls-2" d="M4690.41,544.17c0,178.53-136.32,311.83-321,311.83-184,0-319.76-133.3-319.76-311.83s135.71-311.82,319.76-311.82C4554.09,232.35,4690.41,365.64,4690.41,544.17Zm-478.14,0c0,96,67.26,163.25,157.17,163.25s157.72-67.24,157.72-163.25-67.86-163.24-157.72-163.24S4212.27,448.19,4212.27,544.17Z"/><path class="cls-2" d="M5165.8,260.47,5142,418.84c-26.29-11.63-64.23-19-96.64-19-74,0-124.71,45.26-124.71,133.3V856H4761.05V263.54h154.68v64.82c37.29-55.66,94.15-80.73,166.88-80.73C5116.86,247.63,5143.8,252.53,5165.8,260.47Z"/></svg>